<?xml version="1.0" encoding="utf-8"?>
<!-- Generator: Adobe Illustrator 23.0.3, SVG Export Plug-In . SVG Version: 6.00 Build 0)  -->
<svg version="1.0" id="Layer_1" xmlns="http://www.w3.org/2000/svg" xmlns:xlink="http://www.w3.org/1999/xlink" x="0px" y="0px"
	 viewBox="0 0 2000 2000" style="enable-background:new 0 0 2000 2000;" xml:space="preserve">
<style type="text/css">
	.st0{fill:url(#SVGID_1_);}
	.st1{fill:url(#SVGID_2_);}
	.st2{fill:#FFFFFF;}
</style>
<linearGradient id="SVGID_1_" gradientUnits="userSpaceOnUse" x1="-2088.4324" y1="1900.4006" x2="-217.4683" y2="217.9833">
	<stop  offset="0" style="stop-color:#ED1E79"/>
	<stop  offset="1" style="stop-color:#2E3192"/>
</linearGradient>
<rect x="-2088.9" y="-0.1" class="st0" width="2003.6" height="2000.2"/>
<linearGradient id="SVGID_2_" gradientUnits="userSpaceOnUse" x1="91.519" y1="2493.3354" x2="1575.5479" y2="61.3931">
	<stop  offset="0" style="stop-color:#ED1E79"/>
	<stop  offset="1" style="stop-color:#2E3192"/>
</linearGradient>
<rect x="-20.7" y="-16.4" class="st1" width="2041.5" height="2041.9"/>
<g>
	<g>
		<g>
			<path class="st2" d="M-551,996.2c0,13-10.5,23.5-23.5,23.5c-13,0-23.5-10.5-23.5-23.5c0-13,10.5-23.5,23.5-23.5
				C-561.5,972.7-551,983.2-551,996.2z"/>
			<path class="st2" d="M-1136.8,1137.2h-462.5c-14.1,0-26.8-5.7-36-14.9c-9.2-9.2-14.9-21.9-14.9-36V908.5c0-14.1,5.7-26.8,14.9-36
				c9.2-9.2,21.9-14.9,36-14.9h224.4v-8.5l-224.4,0c-32.8,0-59.4,26.6-59.4,59.4v177.8c0,32.8,26.6,59.4,59.4,59.4h462.5V1137.2
				L-1136.8,1137.2z"/>
			<path class="st2" d="M-1034.3,857.6h462.5c14.1,0,26.8,5.7,36,14.9c9.2,9.2,14.9,21.9,14.9,36v177.8c0,14.1-5.7,26.8-14.9,36
				c-9.2,9.2-21.9,14.9-36,14.9h-224.4v8.5l224.4,0c32.8,0,59.4-26.6,59.4-59.4V908.5c0-32.8-26.6-59.4-59.4-59.4h-462.5V857.6
				L-1034.3,857.6z"/>
		</g>
		<path class="st2" d="M-1639.3,1068.3h-4.1c-6.4,0-11.6-5.2-11.6-11.6V934.2c0-6.4,5.2-11.6,11.6-11.6h4.1
			c6.4,0,11.6,5.2,11.6,11.6v122.5C-1627.7,1063.1-1632.9,1068.3-1639.3,1068.3z"/>
		<path class="st2" d="M-1415.1,842.1h-95.8c-0.6,0-1.1-0.5-1.1-1.1v-6.4c0-0.6,0.5-1.1,1.1-1.1h95.8c0.6,0,1.1,0.5,1.1,1.1v6.4
			C-1414,841.6-1414.5,842.1-1415.1,842.1z"/>
		<path class="st2" d="M-1459.3,1166.5h-51.5c-0.6,0-1.1-0.5-1.1-1.1v-6.4c0-0.6,0.5-1.1,1.1-1.1h51.5c0.6,0,1.1,0.5,1.1,1.1v6.4
			C-1458.3,1166-1458.8,1166.5-1459.3,1166.5z"/>
		<path class="st2" d="M-1399.7,1166.5h-51.5c-0.6,0-1.1-0.5-1.1-1.1v-6.4c0-0.6,0.5-1.1,1.1-1.1h51.5c0.6,0,1.1,0.5,1.1,1.1v6.4
			C-1398.6,1166-1399.1,1166.5-1399.7,1166.5z"/>
	</g>
	<g>
		<rect x="-1573.9" y="974.8" class="st2" width="15.3" height="65.2"/>
		<path class="st2" d="M-1566.2,945.7c-5.6,0-9.8,4-9.8,9.2s4.2,9.2,9.8,9.2c5.7,0,9.8-4.2,9.8-9.5
			C-1556.5,949.5-1560.6,945.7-1566.2,945.7z"/>
		<path class="st2" d="M-1502,954.5h-35.2v85.5h15.9v-24.7h19.3c22.5,0,36.4-11.6,36.4-30.4C-1465.6,966-1479.5,954.5-1502,954.5z
			 M-1502.7,1001.9h-18.6v-34h18.6c13.9,0,21.1,6.2,21.1,17C-1481.6,995.7-1488.8,1001.9-1502.7,1001.9z"/>
		<path class="st2" d="M-1412.9,974.1c-9,0-16.7,2.9-21.7,8.3v-33h-15.3v90.6h15.3v-33c0-13.1,7.3-19.7,18.2-19.7
			c9.8,0,15.5,5.6,15.5,17.2v35.4h15.3v-37.4C-1385.7,983-1397.3,974.1-1412.9,974.1z"/>
		<path class="st2" d="M-1336.4,974.1c-20,0-34.7,13.8-34.7,33.3c0,19.5,14.7,33.5,34.7,33.5c20.3,0,34.8-13.9,34.8-33.5
			C-1301.5,987.9-1316.1,974.1-1336.4,974.1z M-1336.4,1027.8c-11,0-19.3-7.9-19.3-20.4c0-12.5,8.3-20.4,19.3-20.4
			c11.1,0,19.4,7.9,19.4,20.4C-1316.9,1019.9-1325.2,1027.8-1336.4,1027.8z"/>
		<path class="st2" d="M-1249.9,974.1c-9.5,0-17.5,3.2-22.5,9.2v-8.4h-14.5v65.2h15.3v-33c0-13.1,7.3-19.7,18.2-19.7
			c9.8,0,15.5,5.6,15.5,17.2v35.4h15.3v-37.4C-1222.6,983-1234.2,974.1-1249.9,974.1z"/>
		<path class="st2" d="M-1174.3,974.1c-19.4,0-33.7,13.9-33.7,33.3c0,19.4,14.2,33.5,36,33.5c11.2,0,20.4-3.7,26.3-10.6l-8.2-9.4
			c-4.6,4.8-10.4,7.1-17.7,7.1c-11.4,0-19.3-6.1-21.1-15.6h51.2c0.1-1.5,0.2-3.3,0.2-4.5C-1141.3,987.4-1155.2,974.1-1174.3,974.1z
			 M-1192.8,1002.2c1.5-9.5,8.7-15.9,18.6-15.9c10,0,17.2,6.5,18.4,15.9H-1192.8z"/>
		<path class="st2" d="M-1051,967.2c8.9,0,16.6,3.3,22.8,10l10.3-9.6c-7.9-9.3-19.9-14.3-33.8-14.3c-26.3,0-45.8,18.4-45.8,44
			c0,25.5,19.5,44,45.7,44c14,0,26-5,34-14.3l-10.3-9.8c-6.2,6.8-13.9,10.1-22.8,10.1c-17.7,0-30.5-12.5-30.5-30
			C-1081.6,979.7-1068.7,967.2-1051,967.2z"/>
		<path class="st2" d="M-967.1,974.1c-9,0-16.7,2.9-21.7,8.3v-33h-15.3v90.6h15.3v-33c0-13.1,7.3-19.7,18.2-19.7
			c9.8,0,15.5,5.6,15.5,17.2v35.4h15.3v-37.4C-939.9,983-951.5,974.1-967.1,974.1z"/>
		<path class="st2" d="M-891.5,974.1c-19.4,0-33.7,13.9-33.7,33.3c0,19.4,14.2,33.5,36,33.5c11.2,0,20.4-3.7,26.3-10.6l-8.2-9.4
			c-4.6,4.8-10.4,7.1-17.7,7.1c-11.4,0-19.3-6.1-21.1-15.6h51.2c0.1-1.5,0.2-3.3,0.2-4.5C-858.5,987.4-872.4,974.1-891.5,974.1z
			 M-910.1,1002.2c1.5-9.5,8.7-15.9,18.6-15.9c10,0,17.2,6.5,18.4,15.9H-910.1z"/>
		<path class="st2" d="M-814.1,987c6.5,0,12.3,2.8,16.2,9l11.7-6.8c-5-9.9-15.1-15.1-27.8-15.1c-20.6,0-35.3,13.8-35.3,33.3
			c0,19.5,14.7,33.5,35.3,33.5c12.7,0,22.8-5.5,27.8-15.3l-11.7-6.8c-3.9,6.2-9.8,9-16.2,9c-11.2,0-19.8-7.7-19.8-20.4
			C-833.8,994.8-825.3,987-814.1,987z"/>
		<polygon class="st2" points="-708.3,974.8 -726.6,974.8 -758.2,1004.1 -758.2,949.4 -773.5,949.4 -773.5,1040 -758.2,1040 
			-758.2,1022.8 -746.9,1012.1 -724.3,1040 -705.7,1040 -735.5,1002.2 		"/>
		<path class="st2" d="M-688.5,993.7c0-4.3,4.4-7.3,13.7-7.3c6.2,0,12.5,1.2,18.7,4.9l5.9-11.6c-5.9-3.5-15.8-5.6-24.4-5.6
			c-17.6,0-28.7,8.1-28.7,20.4c0,26,40.3,14.3,40.3,26.7c0,4.5-4,7.2-13.7,7.2c-8.2,0-17-2.7-22.7-6.5l-5.9,11.6
			c5.9,4.2,16.7,7.3,27.6,7.3c18.3,0,29.6-7.9,29.6-20.2C-648.2,995.2-688.5,1006.9-688.5,993.7z"/>
	</g>
	<g>
		<path class="st2" d="M-918.3,1075.7l-2.3,4.9c-3.6-2.2-7.2-3.1-9.7-3.1c-3.3,0-5.4,1.2-5.4,3.5c0,7.2,17.9,3.4,17.9,15.3
			c0,5.9-5.2,9.6-12.5,9.6c-5.2,0-10.1-2.1-13.6-5.3l2.4-4.8c3.4,3.1,7.7,4.8,11.2,4.8c3.9,0,6.2-1.5,6.2-4
			c0-7.4-17.9-3.3-17.9-15.1c0-5.7,4.9-9.2,12.1-9.2C-925.6,1072.3-921.3,1073.7-918.3,1075.7z"/>
		<path class="st2" d="M-897.2,1077.6v9h16.2v5h-16.2v9.1h18.7v5h-24.3v-33.2h23.7v5H-897.2z"/>
		<path class="st2" d="M-848.2,1095.7c-0.5,0-1,0-1.5,0h-7.9v10h-5.6v-33.2h13.5c8.5,0,13.4,4.1,13.4,11.3c0,5.3-2.5,9.1-6.9,10.8
			l7.4,11.1h-6.3L-848.2,1095.7z M-849.7,1090.7c5.1,0,8.1-2.2,8.1-6.7c0-4.4-2.9-6.4-8.1-6.4h-7.9v13.1H-849.7z"/>
		<path class="st2" d="M-811.7,1105.7l-13.2-33.2h6l10.2,27l10.3-27h5.8l-13.4,33.2H-811.7z"/>
		<path class="st2" d="M-779.5,1105.7v-33.2h5.6v33.2H-779.5z"/>
		<path class="st2" d="M-729.4,1077.5l-3.3,4.1c-2.4-2.6-5.9-4.2-9.2-4.2c-6.6,0-11.8,5.1-11.8,11.7c0,6.5,5.2,11.7,11.8,11.7
			c3.3,0,6.7-1.5,9.2-3.9l3.3,3.7c-3.4,3.3-8.1,5.4-12.8,5.4c-9.7,0-17.2-7.3-17.2-16.9c0-9.4,7.6-16.7,17.4-16.7
			C-737.3,1072.4-732.6,1074.4-729.4,1077.5z"/>
		<path class="st2" d="M-709.5,1077.6v9h16.2v5h-16.2v9.1h18.7v5h-24.3v-33.2h23.7v5H-709.5z"/>
		<path class="st2" d="M-653,1075.7l-2.3,4.9c-3.6-2.2-7.2-3.1-9.7-3.1c-3.3,0-5.4,1.2-5.4,3.5c0,7.2,17.9,3.4,17.9,15.3
			c0,5.9-5.2,9.6-12.5,9.6c-5.2,0-10.1-2.1-13.6-5.3l2.4-4.8c3.4,3.1,7.7,4.8,11.2,4.8c3.9,0,6.2-1.5,6.2-4
			c0-7.4-17.9-3.3-17.9-15.1c0-5.7,4.9-9.2,12.1-9.2C-660.3,1072.3-656.1,1073.7-653,1075.7z"/>
	</g>
</g>
<g>
	<g>
		<g>
			<path class="st2" d="M1534.5,996.2c0,13-10.5,23.5-23.5,23.5c-13,0-23.5-10.5-23.5-23.5c0-13,10.5-23.5,23.5-23.5
				C1524,972.7,1534.5,983.2,1534.5,996.2z"/>
			<path class="st2" d="M948.8,1137.2H486.2c-14.1,0-26.8-5.7-36-14.9c-9.2-9.2-14.9-21.9-14.9-36V908.5c0-14.1,5.7-26.8,14.9-36
				c9.2-9.2,21.9-14.9,36-14.9h224.4v-8.5l-224.4,0c-32.8,0-59.4,26.6-59.4,59.4v177.8c0,32.8,26.6,59.4,59.4,59.4h462.5V1137.2
				L948.8,1137.2z"/>
			<path class="st2" d="M1051.2,857.6h462.5c14.1,0,26.8,5.7,36,14.9c9.2,9.2,14.9,21.9,14.9,36v177.8c0,14.1-5.7,26.8-14.9,36
				c-9.2,9.2-21.9,14.9-36,14.9h-224.4v8.5l224.4,0c32.8,0,59.4-26.6,59.4-59.4V908.5c0-32.8-26.6-59.4-59.4-59.4h-462.5V857.6
				L1051.2,857.6z"/>
		</g>
		<path class="st2" d="M446.2,1068.3h-4.1c-6.4,0-11.6-5.2-11.6-11.6V934.2c0-6.4,5.2-11.6,11.6-11.6h4.1c6.4,0,11.6,5.2,11.6,11.6
			v122.5C457.8,1063.1,452.6,1068.3,446.2,1068.3z"/>
		<path class="st2" d="M670.4,842.1h-95.8c-0.6,0-1.1-0.5-1.1-1.1v-6.4c0-0.6,0.5-1.1,1.1-1.1h95.8c0.6,0,1.1,0.5,1.1,1.1v6.4
			C671.5,841.6,671,842.1,670.4,842.1z"/>
		<path class="st2" d="M626.2,1166.5h-51.5c-0.6,0-1.1-0.5-1.1-1.1v-6.4c0-0.6,0.5-1.1,1.1-1.1h51.5c0.6,0,1.1,0.5,1.1,1.1v6.4
			C627.3,1166,626.8,1166.5,626.2,1166.5z"/>
		<path class="st2" d="M685.9,1166.5h-51.5c-0.6,0-1.1-0.5-1.1-1.1v-6.4c0-0.6,0.5-1.1,1.1-1.1h51.5c0.6,0,1.1,0.5,1.1,1.1v6.4
			C686.9,1166,686.5,1166.5,685.9,1166.5z"/>
	</g>
	<g>
		<rect x="511.6" y="974.8" class="st2" width="15.3" height="65.2"/>
		<path class="st2" d="M519.3,945.7c-5.6,0-9.8,4-9.8,9.2s4.2,9.2,9.8,9.2c5.7,0,9.8-4.2,9.8-9.5
			C529.1,949.5,524.9,945.7,519.3,945.7z"/>
		<path class="st2" d="M583.5,954.5h-35.2v85.5h15.9v-24.7h19.3c22.5,0,36.4-11.6,36.4-30.4C619.9,966,606,954.5,583.5,954.5z
			 M582.8,1001.9h-18.6v-34h18.6c13.9,0,21.1,6.2,21.1,17C603.9,995.7,596.7,1001.9,582.8,1001.9z"/>
		<path class="st2" d="M672.6,974.1c-9,0-16.7,2.9-21.7,8.3v-33h-15.3v90.6h15.3v-33c0-13.1,7.3-19.7,18.2-19.7
			c9.8,0,15.5,5.6,15.5,17.2v35.4h15.3v-37.4C699.8,983,688.2,974.1,672.6,974.1z"/>
		<path class="st2" d="M749.2,974.1c-20,0-34.7,13.8-34.7,33.3c0,19.5,14.7,33.5,34.7,33.5c20.3,0,34.8-13.9,34.8-33.5
			C784,987.9,769.4,974.1,749.2,974.1z M749.2,1027.8c-11,0-19.3-7.9-19.3-20.4c0-12.5,8.3-20.4,19.3-20.4
			c11.1,0,19.4,7.9,19.4,20.4C768.6,1019.9,760.3,1027.8,749.2,1027.8z"/>
		<path class="st2" d="M835.6,974.1c-9.5,0-17.5,3.2-22.5,9.2v-8.4h-14.5v65.2h15.3v-33c0-13.1,7.3-19.7,18.2-19.7
			c9.8,0,15.5,5.6,15.5,17.2v35.4h15.3v-37.4C862.9,983,851.3,974.1,835.6,974.1z"/>
		<path class="st2" d="M911.2,974.1c-19.4,0-33.7,13.9-33.7,33.3c0,19.4,14.2,33.5,36,33.5c11.2,0,20.4-3.7,26.3-10.6l-8.2-9.4
			c-4.6,4.8-10.4,7.1-17.7,7.1c-11.4,0-19.3-6.1-21.1-15.6H944c0.1-1.5,0.2-3.3,0.2-4.5C944.2,987.4,930.3,974.1,911.2,974.1z
			 M892.7,1002.2c1.5-9.5,8.7-15.9,18.6-15.9c10,0,17.2,6.5,18.4,15.9H892.7z"/>
		<path class="st2" d="M1034.5,967.2c8.9,0,16.6,3.3,22.8,10l10.3-9.6c-7.9-9.3-19.9-14.3-33.8-14.3c-26.3,0-45.8,18.4-45.8,44
			c0,25.5,19.5,44,45.7,44c14,0,26-5,34-14.3l-10.3-9.8c-6.2,6.8-13.9,10.1-22.8,10.1c-17.7,0-30.5-12.5-30.5-30
			C1004,979.7,1016.8,967.2,1034.5,967.2z"/>
		<path class="st2" d="M1118.4,974.1c-9,0-16.7,2.9-21.7,8.3v-33h-15.3v90.6h15.3v-33c0-13.1,7.3-19.7,18.2-19.7
			c9.8,0,15.5,5.6,15.5,17.2v35.4h15.3v-37.4C1145.6,983,1134,974.1,1118.4,974.1z"/>
		<path class="st2" d="M1194,974.1c-19.4,0-33.7,13.9-33.7,33.3c0,19.4,14.2,33.5,36,33.5c11.2,0,20.4-3.7,26.3-10.6l-8.2-9.4
			c-4.6,4.8-10.4,7.1-17.7,7.1c-11.4,0-19.3-6.1-21.1-15.6h51.2c0.1-1.5,0.2-3.3,0.2-4.5C1227,987.4,1213.1,974.1,1194,974.1z
			 M1175.4,1002.2c1.5-9.5,8.7-15.9,18.6-15.9c10,0,17.2,6.5,18.4,15.9H1175.4z"/>
		<path class="st2" d="M1271.5,987c6.5,0,12.3,2.8,16.2,9l11.7-6.8c-5-9.9-15.1-15.1-27.8-15.1c-20.6,0-35.3,13.8-35.3,33.3
			c0,19.5,14.7,33.5,35.3,33.5c12.7,0,22.8-5.5,27.8-15.3l-11.7-6.8c-3.9,6.2-9.8,9-16.2,9c-11.2,0-19.8-7.7-19.8-20.4
			C1251.7,994.8,1260.2,987,1271.5,987z"/>
		<polygon class="st2" points="1377.2,974.8 1358.9,974.8 1327.3,1004.1 1327.3,949.4 1312,949.4 1312,1040 1327.3,1040 
			1327.3,1022.8 1338.6,1012.1 1361.2,1040 1379.8,1040 1350,1002.2 		"/>
		<path class="st2" d="M1397,993.7c0-4.3,4.4-7.3,13.7-7.3c6.2,0,12.5,1.2,18.7,4.9l5.9-11.6c-5.9-3.5-15.8-5.6-24.4-5.6
			c-17.6,0-28.7,8.1-28.7,20.4c0,26,40.3,14.3,40.3,26.7c0,4.5-4,7.2-13.7,7.2c-8.2,0-17-2.7-22.7-6.5l-5.9,11.6
			c5.9,4.2,16.7,7.3,27.6,7.3c18.3,0,29.6-7.9,29.6-20.2C1437.3,995.2,1397,1006.9,1397,993.7z"/>
	</g>
	<g>
		<path class="st2" d="M1001.2,1125.9l-2.3,4.9c-3.6-2.2-7.2-3.1-9.7-3.1c-3.3,0-5.4,1.2-5.4,3.5c0,7.2,17.9,3.4,17.9,15.3
			c0,5.9-5.2,9.6-12.5,9.6c-5.2,0-10.1-2.1-13.6-5.3l2.4-4.8c3.4,3.1,7.7,4.8,11.2,4.8c3.9,0,6.2-1.5,6.2-4
			c0-7.4-17.9-3.3-17.9-15.1c0-5.7,4.9-9.2,12.1-9.2C993.9,1122.4,998.1,1123.8,1001.2,1125.9z"/>
		<path class="st2" d="M1022.3,1127.7v9h16.2v5h-16.2v9.1h18.7v5h-24.3v-33.2h23.7v5H1022.3z"/>
		<path class="st2" d="M1071.3,1145.8c-0.5,0-1,0-1.5,0h-7.9v10h-5.6v-33.2h13.5c8.5,0,13.4,4.1,13.4,11.3c0,5.3-2.5,9.1-6.9,10.8
			l7.4,11.1h-6.3L1071.3,1145.8z M1069.7,1140.8c5.1,0,8.1-2.2,8.1-6.7c0-4.4-2.9-6.4-8.1-6.4h-7.9v13.1H1069.7z"/>
		<path class="st2" d="M1107.7,1155.9l-13.2-33.2h6l10.2,27l10.3-27h5.8l-13.4,33.2H1107.7z"/>
		<path class="st2" d="M1139.9,1155.9v-33.2h5.6v33.2H1139.9z"/>
		<path class="st2" d="M1190,1127.7l-3.3,4.1c-2.4-2.6-5.9-4.2-9.2-4.2c-6.6,0-11.8,5.1-11.8,11.7c0,6.5,5.2,11.7,11.8,11.7
			c3.3,0,6.7-1.5,9.2-3.9l3.3,3.7c-3.4,3.3-8.1,5.4-12.8,5.4c-9.7,0-17.2-7.3-17.2-16.9c0-9.4,7.6-16.7,17.4-16.7
			C1182.1,1122.5,1186.8,1124.5,1190,1127.7z"/>
		<path class="st2" d="M1209.9,1127.7v9h16.2v5h-16.2v9.1h18.7v5h-24.3v-33.2h23.7v5H1209.9z"/>
		<path class="st2" d="M1266.4,1125.9l-2.3,4.9c-3.6-2.2-7.2-3.1-9.7-3.1c-3.3,0-5.4,1.2-5.4,3.5c0,7.2,17.9,3.4,17.9,15.3
			c0,5.9-5.2,9.6-12.5,9.6c-5.2,0-10.1-2.1-13.6-5.3l2.4-4.8c3.4,3.1,7.7,4.8,11.2,4.8c3.9,0,6.2-1.5,6.2-4
			c0-7.4-17.9-3.3-17.9-15.1c0-5.7,4.9-9.2,12.1-9.2C1259.1,1122.4,1263.3,1123.8,1266.4,1125.9z"/>
	</g>
</g>
</svg>
